<?xml version="1.0" encoding="utf-8"?>
<!-- Generator: Adobe Illustrator 16.0.0, SVG Export Plug-In . SVG Version: 6.00 Build 0)  -->
<!DOCTYPE svg PUBLIC "-//W3C//DTD SVG 1.1//EN" "http://www.w3.org/Graphics/SVG/1.1/DTD/svg11.dtd">
<svg version="1.1" id="Calque_1" xmlns="http://www.w3.org/2000/svg" xmlns:xlink="http://www.w3.org/1999/xlink" x="0px" y="0px"
	 width="283.465px" height="358.839px" viewBox="0 0 283.465 358.839" enable-background="new 0 0 283.465 358.839"
	 xml:space="preserve">
<path id="CA-AB" fill="#EAEAEA" stroke="#BFBFBF" stroke-miterlimit="10" d="M204.325,327.34
	c-55.338,1.406-49.203,1.863-54.237-4.049l-4.241-4.979l-1.008-11.219c-1.063-11.83-2.009-14.623-6.641-19.609
	c-1.574-1.691-6.008-6.465-9.855-10.605c-3.847-4.141-8.705-9.99-10.794-12.999c-2.09-3.008-5.605-7.004-7.812-8.878
	s-4.751-4.883-5.654-6.686c-0.904-1.802-3.292-4.335-5.306-5.631c-2.015-1.294-3.796-2.812-3.959-3.372
	c-0.163-0.561-1.562-2.017-3.107-3.238c-1.626-1.284-3.99-4.829-5.608-8.41c-1.762-3.9-4.018-7.188-6.096-8.887
	c-1.815-1.481-4.083-3.739-5.038-5.017c-0.956-1.278-3.549-2.866-5.761-3.529c-3.966-1.188-6.226-4.351-4.487-6.28
	c0.433-0.48,0.088-3.271-0.767-6.203c-1.52-5.215-0.492-25.128,8.017-155.371l0.769-11.777l23.321,0.875
	c12.827,0.479,32.23,0.885,43.12,0.9c10.89,0.015,30.079,0.039,42.642,0.052c12.563,0.014,22.981,0.101,23.149,0.192
	c0.818,0.449,1.437,15.558,0.675,16.467c-0.48,0.576-1.836,1.626-3.012,2.335c-2.223,1.341-9.399,14.242-8.926,16.046
	c0.149,0.566,2.029,1.316,4.176,1.665c3.757,0.612,3.987,0.532,6.088-2.129c1.2-1.521,2.207-3.733,2.234-4.915
	c0.028-1.183,0.308-2.01,0.62-1.838c0.313,0.171,0.929,7.878,1.368,17.127c1.038,21.833,2.189,45.473,3.791,77.918
	c0.711,14.402,1.512,30.807,1.779,36.458c1.35,28.494,2.576,53.941,3.267,67.795c3.642,73.141,3.427,67.284,2.464,67.362
	C219.113,326.943,212.286,327.137,204.325,327.34z"/>
<circle fill="#414042" cx="121.709" cy="265.354" r="5.806"/>
<g>
	<path d="M36.55,268.754h4.717v1.073H35.23v-9.953h1.319V268.754z"/>
	<path d="M47.132,269.827c-0.073-0.146-0.132-0.406-0.178-0.779c-0.588,0.611-1.29,0.916-2.105,0.916
		c-0.729,0-1.327-0.206-1.794-0.619s-0.701-0.936-0.701-1.569c0-0.77,0.293-1.368,0.878-1.794s1.409-0.639,2.471-0.639h1.23v-0.581
		c0-0.442-0.132-0.794-0.396-1.056s-0.654-0.393-1.169-0.393c-0.451,0-0.83,0.114-1.135,0.342s-0.458,0.503-0.458,0.827h-1.271
		c0-0.369,0.131-0.726,0.393-1.07s0.618-0.616,1.066-0.817s0.942-0.301,1.48-0.301c0.852,0,1.52,0.213,2.003,0.639
		s0.734,1.013,0.752,1.76v3.404c0,0.679,0.086,1.219,0.26,1.62v0.109H47.132z M45.033,268.863c0.396,0,0.772-0.103,1.128-0.308
		s0.613-0.472,0.772-0.8v-1.518h-0.991c-1.549,0-2.324,0.454-2.324,1.36c0,0.396,0.132,0.707,0.396,0.93
		S44.619,268.863,45.033,268.863z"/>
	<path d="M52.245,266.402l-0.793,0.827v2.598h-1.265v-10.5h1.265v6.351l0.677-0.813l2.304-2.434h1.538l-2.878,3.09l3.213,4.307
		h-1.483L52.245,266.402z"/>
	<path d="M60.209,269.964c-1.002,0-1.818-0.329-2.447-0.988s-0.943-1.539-0.943-2.642v-0.232c0-0.734,0.14-1.389,0.42-1.965
		s0.672-1.028,1.176-1.354s1.049-0.489,1.637-0.489c0.961,0,1.709,0.317,2.242,0.95s0.8,1.541,0.8,2.721v0.526h-5.011
		c0.018,0.729,0.231,1.318,0.639,1.767s0.926,0.673,1.555,0.673c0.447,0,0.825-0.091,1.135-0.273s0.581-0.424,0.813-0.725
		l0.772,0.602C62.378,269.488,61.449,269.964,60.209,269.964z M60.052,263.333c-0.51,0-0.939,0.186-1.285,0.557
		s-0.561,0.892-0.643,1.562h3.705v-0.096c-0.037-0.643-0.209-1.141-0.52-1.494S60.581,263.333,60.052,263.333z"/>
	<path d="M69.54,268.754h4.717v1.073h-6.036v-9.953h1.319V268.754z"/>
	<path d="M75.221,266.061c0-0.725,0.143-1.376,0.427-1.955s0.681-1.025,1.189-1.34s1.088-0.472,1.74-0.472
		c1.007,0,1.822,0.349,2.444,1.046s0.933,1.625,0.933,2.782v0.089c0,0.72-0.138,1.366-0.414,1.938s-0.67,1.018-1.183,1.336
		s-1.102,0.479-1.767,0.479c-1.002,0-1.815-0.349-2.437-1.046s-0.933-1.62-0.933-2.769V266.061z M76.492,266.211
		c0,0.82,0.19,1.479,0.571,1.976s0.89,0.745,1.528,0.745c0.643,0,1.153-0.252,1.531-0.755s0.567-1.209,0.567-2.116
		c0-0.811-0.192-1.469-0.578-1.972s-0.896-0.755-1.535-0.755c-0.625,0-1.128,0.249-1.511,0.745S76.492,265.286,76.492,266.211z"/>
	<path d="M88.106,269.096c-0.492,0.579-1.214,0.868-2.167,0.868c-0.789,0-1.389-0.229-1.801-0.687s-0.621-1.136-0.625-2.034v-4.813
		h1.265v4.778c0,1.121,0.456,1.682,1.367,1.682c0.966,0,1.609-0.36,1.928-1.08v-5.38h1.265v7.396h-1.203L88.106,269.096z"/>
	<path d="M91.265,260.469c0-0.205,0.063-0.378,0.188-0.52s0.311-0.212,0.557-0.212s0.433,0.071,0.561,0.212s0.191,0.314,0.191,0.52
		s-0.064,0.376-0.191,0.513s-0.314,0.205-0.561,0.205s-0.432-0.068-0.557-0.205S91.265,260.674,91.265,260.469z M92.632,269.827
		h-1.265v-7.396h1.265V269.827z"/>
	<path d="M98.962,267.865c0-0.342-0.129-0.607-0.386-0.796s-0.707-0.352-1.347-0.489s-1.148-0.301-1.524-0.492
		s-0.654-0.419-0.834-0.684s-0.27-0.579-0.27-0.943c0-0.606,0.256-1.119,0.769-1.538s1.168-0.629,1.965-0.629
		c0.838,0,1.519,0.216,2.041,0.649s0.783,0.987,0.783,1.661h-1.271c0-0.346-0.147-0.645-0.441-0.896s-0.664-0.376-1.111-0.376
		c-0.46,0-0.82,0.1-1.08,0.301s-0.39,0.462-0.39,0.786c0,0.305,0.121,0.536,0.362,0.69s0.678,0.303,1.309,0.444
		s1.143,0.31,1.535,0.506s0.683,0.432,0.872,0.708s0.284,0.612,0.284,1.008c0,0.661-0.264,1.19-0.793,1.589
		s-1.214,0.598-2.058,0.598c-0.592,0-1.117-0.105-1.572-0.314s-0.813-0.502-1.07-0.878s-0.386-0.783-0.386-1.22h1.265
		c0.023,0.424,0.192,0.76,0.509,1.008s0.735,0.373,1.254,0.373c0.479,0,0.862-0.097,1.152-0.291S98.962,268.189,98.962,267.865z"/>
	<path d="M104.943,269.964c-1.002,0-1.818-0.329-2.447-0.988s-0.943-1.539-0.943-2.642v-0.232c0-0.734,0.14-1.389,0.42-1.965
		s0.672-1.028,1.176-1.354s1.049-0.489,1.637-0.489c0.961,0,1.709,0.317,2.242,0.95s0.8,1.541,0.8,2.721v0.526h-5.011
		c0.018,0.729,0.231,1.318,0.639,1.767s0.926,0.673,1.555,0.673c0.447,0,0.825-0.091,1.135-0.273s0.581-0.424,0.813-0.725
		l0.772,0.602C107.113,269.488,106.183,269.964,104.943,269.964z M104.786,263.333c-0.51,0-0.939,0.186-1.285,0.557
		s-0.561,0.892-0.643,1.562h3.705v-0.096c-0.037-0.643-0.209-1.141-0.52-1.494S105.315,263.333,104.786,263.333z"/>
</g>
</svg>
